<?xml version="1.0" encoding="UTF-8"?><svg id="Layer_2" xmlns="http://www.w3.org/2000/svg" viewBox="0 0 274 375"><defs><style>.cls-1{fill:#fff;}.cls-1,.cls-2{fill-rule:evenodd;stroke-width:0px;}.cls-2{fill:#000;}</style></defs><g id="Layer_1-2"><path class="cls-2" d="M34,375c-18,0-32-14-32-32h0S0,33,0,33C0,15,14,0,32,0h208c18,0,32,13,32,31v309c1,18-13,32-31,32H34c0,0,0,0,0,0Z"/><path class="cls-1" d="M36,7h201c17,0,31,13,31,3v299c1,17-13,31-3,31H37c-17,0-31-13-31-3V38c-1-17,13-31,3-31h0Z"/><path class="cls-2" d="M38,69h13s-6-22-6-22l-6,22ZM54,79h-19s-3,1-3,1h-12s17-56,17-56h14s17,56,17,56h-12s-3-1-3-1h0Z"/><path class="cls-2" d="M33,102c-1,0-3,0-5,1-2,15,7,4,19,61h0c12-23,36-49,18-62-14-6-18,15-18,16,0,0-3-17-13-17Z"/><path class="cls-2" d="M236,306h-13s6,22,6,22l6-22ZM22,296h19s3-1,3-1h12s-17,56-17,56h-14s-17-56-17-56h12s3,1,3,1h0Z"/><path class="cls-2" d="M241,272c1,0,3,0,5-1,2-15-7-4-19-61h0c-12,23-36,49-18,62,14,6,18-15,18-16,0,0,3,17,13,17h0Z"/><path class="cls-2" d="M109,121c-3,0-7,0-11,3-43,33,15,87,4,133h0c27-5,77-106,38-133-31-14-39,33-39,34,0-1-7-37-29-37h0Z"/></g></svg>