<?xml version="1.0" encoding="UTF-8"?><svg id="Layer_2" xmlns="http://www.w3.org/2000/svg" viewBox="0 0 364 425"><defs><style>.cls-1{fill:#fff;}.cls-1,.cls-2{fill-rule:evenodd;stroke-width:0px;}.cls-2{fill:#000;}</style></defs><g id="Layer_1-2"><path class="cls-2" d="M146,424c-17,6-35-3-41-2h0S2,112,2,112c-6-17,3-35,2-41L218,2c17-6,35,3,41,2l103,292c6,17-3,35-2,41l-196,69h0Z"/><path class="cls-1" d="M27,75L216,9c16-6,34,3,4,19l99,282c6,16-3,34-19,4l-189,67c-16,6-34-3-4-19L8,115c-6-16,3-34,19-4h0Z"/><path class="cls-2" d="M5,133l12-4-13-19v23ZM68,138l-18,6v11c0,0-11,4-11,4l-2-59,13-5,35,47-11,4-6-9h0Z"/><path class="cls-2" d="M56,166c-1,0-3,1-4,3-14,21,2,36,38,52h0c4-26,18-58-3-64-16-1-12,2-12,21,0,0-9-15-18-12Z"/><path class="cls-2" d="M314,292l-12,4,13,19v-23ZM296,288l18-6v-11c0,0,11-4,11-4l2,59-13,5-35-47,11-4,6,9h0Z"/><path class="cls-2" d="M308,259c1,0,3-1,4-3,14-21-2-36-38-52h0c-4,26-18,58,3,64,16,1,12-2,12-21,0,0,9,15,18,12h0Z"/><path class="cls-2" d="M133,159c-3,1-6,3-9,6-29,45,43,77,81,112h0c9-56,38-125-8-138-34-3-26,44-26,45,0-1-18-33-39-25h0Z"/></g></svg>