<?xml version="1.0" encoding="UTF-8"?><svg id="Layer_2" xmlns="http://www.w3.org/2000/svg" viewBox="0 0 428 432"><defs><style>.cls-1{fill:#fff;}.cls-1,.cls-2{fill-rule:evenodd;stroke-width:0px;}.cls-2{fill:#000;}</style></defs><g id="Layer_1-2"><path class="cls-2" d="M267,423c-13,12-33,12-46-1h0S9,198,9,198c-12-13-12-33,1-46L161,9c13-12,33-12,46,1l213,224c12,13,12,33-1,46l-151,143h0Z"/><path class="cls-1" d="M17,154L163,16c13-12,32-11,44,1l206,217c12,13,11,32-1,44l-146,138c-13,12-32,11-44-1L16,198c-12-13-11-32,1-44h0Z"/><path class="cls-2" d="M61,197l9-9-2-12,11,21ZM8,194l-14,13,5,9-9,8-26-53,1-1,51,29-9,8-9-5h0Z"/><path class="cls-2" d="M8,225c-1,1-2,2-3,4-4,25,33,24,55,32h0c-7-26-7-61-29-57-15,5-3,23-2,24,0,0-14-1-21-3Z"/><path class="cls-2" d="M368,235l-9,9,2,12-11-21ZM349,238l14-13-5-9,9-8,26,53-1,1-51-29,9-8,9,5h0Z"/><path class="cls-2" d="M348,207c1-1,2-2,3-4,4-25-33-24-56-32h0c7,26,7,61,29,57,15-5,3-24,2-24,0,0,14,1,21,3h0Z"/><path class="cls-2" d="M148,187c-2,2-4,5-6,9-8,53,7,53,12,69h0c-15-55-16-13-63-124-32,11-6,51-5,52-1,0-3-22-46-7h0Z"/></g></svg>